<?xml version="1.0" encoding="UTF-8" standalone="no"?>
<!DOCTYPE svg PUBLIC "-//W3C//DTD SVG 1.1//EN"
 "http://www.w3.org/Graphics/SVG/1.1/DTD/svg11.dtd">
<!-- Generated by graphviz version 2.46.0 (0)
 -->
<!-- Title: G Pages: 1 -->
<svg width="576pt" height="115pt"
 viewBox="0.00 0.00 576.00 115.24" xmlns="http://www.w3.org/2000/svg" xmlns:xlink="http://www.w3.org/1999/xlink">
<g id="graph0" class="graph" transform="scale(0.46 0.46) rotate(0) translate(4 244)">
<title>G</title>
<polygon fill="white" stroke="transparent" points="-4,4 -4,-244 1235.6,-244 1235.6,4 -4,4"/>
<!-- init -->
<g id="node1" class="node">
<title>init</title>
<ellipse fill="#616161" stroke="#616161" cx="1.8" cy="-102" rx="1.8" ry="1.8"/>
</g>
<!-- New -->
<g id="node2" class="node">
<title>New</title>
<polygon fill="#616161" stroke="#616161" stroke-width="0" points="93.6,-120 39.6,-120 39.6,-84 93.6,-84 93.6,-120"/>
<text text-anchor="middle" x="66.6" y="-98.3" font-family="Roboto" font-size="14.00" fill="white">New</text>
</g>
<!-- init&#45;&gt;New -->
<g id="edge1" class="edge">
<title>init&#45;&gt;New</title>
<path fill="none" stroke="#616161" d="M3.89,-102C7.71,-102 21.01,-102 34.29,-102"/>
<polygon fill="#616161" stroke="#616161" points="34.55,-103.75 39.55,-102 34.55,-100.25 34.55,-103.75"/>
</g>
<!-- Invalid -->
<g id="node3" class="node">
<title>Invalid</title>
<polygon fill="#616161" stroke="#616161" stroke-width="0" points="187.6,-210 129.6,-210 129.6,-174 187.6,-174 187.6,-210"/>
<text text-anchor="middle" x="158.6" y="-188.3" font-family="Roboto" font-size="14.00" fill="white">Invalid</text>
</g>
<!-- New&#45;&gt;Invalid -->
<g id="edge2" class="edge">
<title>New&#45;&gt;Invalid</title>
<path fill="none" stroke="#616161" d="M85.81,-120.21C100.21,-134.61 120.35,-154.75 135.64,-170.04"/>
<polygon fill="#616161" stroke="#616161" points="134.64,-171.52 139.41,-173.81 137.12,-169.04 134.64,-171.52"/>
</g>
<!-- April Fools -->
<g id="node4" class="node">
<title>April Fools</title>
<polygon fill="#616161" stroke="#616161" stroke-width="0" points="307.6,-36 223.6,-36 223.6,0 307.6,0 307.6,-36"/>
<text text-anchor="middle" x="265.6" y="-14.3" font-family="Roboto" font-size="14.00" fill="white">April Fools</text>
</g>
<!-- New&#45;&gt;April Fools -->
<g id="edge3" class="edge">
<title>New&#45;&gt;April Fools</title>
<path fill="none" stroke="#616161" d="M84.7,-83.83C96.34,-72.51 112.65,-58.51 129.6,-50 157.36,-36.06 191.42,-28.04 218.38,-23.52"/>
<polygon fill="#616161" stroke="#616161" points="218.67,-25.25 223.32,-22.72 218.11,-21.79 218.67,-25.25"/>
</g>
<!-- Low Priority -->
<g id="node6" class="node">
<title>Low Priority</title>
<polygon fill="#616161" stroke="#616161" stroke-width="0" points="435.6,-128 343.6,-128 343.6,-92 435.6,-92 435.6,-128"/>
<text text-anchor="middle" x="389.6" y="-106.3" font-family="Roboto" font-size="14.00" fill="white">Low Priority</text>
</g>
<!-- New&#45;&gt;Low Priority -->
<g id="edge5" class="edge">
<title>New&#45;&gt;Low Priority</title>
<path fill="none" stroke="#616161" d="M93.87,-102.65C147.21,-103.98 268.99,-107.02 338.16,-108.74"/>
<polygon fill="#616161" stroke="#616161" points="338.42,-110.5 343.46,-108.88 338.51,-107 338.42,-110.5"/>
</g>
<!-- High Priority -->
<g id="node7" class="node">
<title>High Priority</title>
<polygon fill="#616161" stroke="#616161" stroke-width="0" points="565.6,-82 471.6,-82 471.6,-46 565.6,-46 565.6,-82"/>
<text text-anchor="middle" x="518.6" y="-60.3" font-family="Roboto" font-size="14.00" fill="white">High Priority</text>
</g>
<!-- New&#45;&gt;High Priority -->
<g id="edge6" class="edge">
<title>New&#45;&gt;High Priority</title>
<path fill="none" stroke="#616161" d="M93.74,-99.79C166.16,-93.68 370.39,-76.43 466.45,-68.32"/>
<polygon fill="#616161" stroke="#616161" points="466.66,-70.06 471.5,-67.89 466.37,-66.57 466.66,-70.06"/>
</g>
<!-- Krangled -->
<g id="node8" class="node">
<title>Krangled</title>
<polygon fill="#616161" stroke="#616161" stroke-width="0" points="1231.6,-235 1159.6,-235 1159.6,-199 1231.6,-199 1231.6,-235"/>
<text text-anchor="middle" x="1195.6" y="-213.3" font-family="Roboto" font-size="14.00" fill="white">Krangled</text>
</g>
<!-- Invalid&#45;&gt;Krangled -->
<g id="edge7" class="edge">
<title>Invalid&#45;&gt;Krangled</title>
<path fill="none" stroke="#616161" d="M187.76,-201.83C230.58,-215.87 314.87,-240 388.6,-240 388.6,-240 388.6,-240 834.1,-240 950.69,-240 1088.06,-227.87 1154.54,-221.23"/>
<polygon fill="#616161" stroke="#616161" points="1154.79,-222.96 1159.59,-220.72 1154.44,-219.48 1154.79,-222.96"/>
</g>
<!-- Recovered -->
<g id="node9" class="node">
<title>Recovered</title>
<polygon fill="#616161" stroke="#616161" stroke-width="0" points="307.1,-166 224.1,-166 224.1,-130 307.1,-130 307.1,-166"/>
<text text-anchor="middle" x="265.6" y="-144.3" font-family="Roboto" font-size="14.00" fill="white">Recovered</text>
</g>
<!-- Invalid&#45;&gt;Recovered -->
<g id="edge8" class="edge">
<title>Invalid&#45;&gt;Recovered</title>
<path fill="none" stroke="#616161" d="M187.74,-180.21C197.33,-176.19 208.31,-171.59 218.91,-167.15"/>
<polygon fill="#616161" stroke="#616161" points="219.81,-168.67 223.75,-165.12 218.46,-165.44 219.81,-168.67"/>
</g>
<!-- Garbage -->
<g id="node5" class="node">
<title>Garbage</title>
<polygon fill="#616161" stroke="#616161" stroke-width="0" points="867.1,-55 799.1,-55 799.1,-19 867.1,-19 867.1,-55"/>
<text text-anchor="middle" x="833.1" y="-33.3" font-family="Roboto" font-size="14.00" fill="white">Garbage</text>
</g>
<!-- April Fools&#45;&gt;Garbage -->
<g id="edge4" class="edge">
<title>April Fools&#45;&gt;Garbage</title>
<path fill="none" stroke="#616161" d="M307.72,-19.38C413.08,-22.92 691.53,-32.28 793.76,-35.71"/>
<polygon fill="#616161" stroke="#616161" points="793.73,-37.46 798.78,-35.88 793.84,-33.96 793.73,-37.46"/>
</g>
<!-- Low Priority&#45;&gt;High Priority -->
<g id="edge12" class="edge">
<title>Low Priority&#45;&gt;High Priority</title>
<path fill="none" stroke="#616161" d="M423.97,-91.89C437.04,-86.47 452.33,-80.73 466.72,-75.8"/>
<polygon fill="#616161" stroke="#616161" points="467.39,-77.42 471.56,-74.16 466.27,-74.1 467.39,-77.42"/>
</g>
<!-- Waiting for Worker -->
<g id="node10" class="node">
<title>Waiting for Worker</title>
<polygon fill="#616161" stroke="#616161" stroke-width="0" points="732.6,-120 601.6,-120 601.6,-84 732.6,-84 732.6,-120"/>
<text text-anchor="middle" x="667.1" y="-98.3" font-family="Roboto" font-size="14.00" fill="white">Waiting for Worker</text>
</g>
<!-- Low Priority&#45;&gt;Waiting for Worker -->
<g id="edge11" class="edge">
<title>Low Priority&#45;&gt;Waiting for Worker</title>
<path fill="none" stroke="#616161" d="M435.78,-108.69C479.4,-107.42 546.05,-105.49 596.45,-104.02"/>
<polygon fill="#616161" stroke="#616161" points="596.63,-105.77 601.58,-103.87 596.53,-102.27 596.63,-105.77"/>
</g>
<!-- High Priority&#45;&gt;Low Priority -->
<g id="edge14" class="edge">
<title>High Priority&#45;&gt;Low Priority</title>
<path fill="none" stroke="#616161" d="M484.19,-82.13C470.87,-87.64 455.26,-93.49 440.65,-98.49"/>
<polygon fill="#616161" stroke="#616161" points="439.91,-96.89 435.73,-100.15 441.03,-100.2 439.91,-96.89"/>
</g>
<!-- High Priority&#45;&gt;Waiting for Worker -->
<g id="edge13" class="edge">
<title>High Priority&#45;&gt;Waiting for Worker</title>
<path fill="none" stroke="#616161" d="M565.95,-76.02C575.68,-78.55 586.14,-81.26 596.5,-83.95"/>
<polygon fill="#616161" stroke="#616161" points="596.3,-85.7 601.58,-85.26 597.18,-82.31 596.3,-85.7"/>
</g>
<!-- Recovered&#45;&gt;New -->
<g id="edge9" class="edge">
<title>Recovered&#45;&gt;New</title>
<path fill="none" stroke="#616161" d="M223.94,-138.51C186.87,-129.85 132.87,-117.24 99.01,-109.34"/>
<polygon fill="#616161" stroke="#616161" points="99.03,-107.54 93.76,-108.11 98.23,-110.95 99.03,-107.54"/>
</g>
<!-- Recovered&#45;&gt;Low Priority -->
<g id="edge10" class="edge">
<title>Recovered&#45;&gt;Low Priority</title>
<path fill="none" stroke="#616161" d="M307.22,-135.35C317.32,-132.2 328.26,-128.79 338.75,-125.53"/>
<polygon fill="#616161" stroke="#616161" points="339.28,-127.2 343.53,-124.04 338.23,-123.85 339.28,-127.2"/>
</g>
<!-- Waiting for Worker&#45;&gt;Garbage -->
<g id="edge15" class="edge">
<title>Waiting for Worker&#45;&gt;Garbage</title>
<path fill="none" stroke="#616161" d="M713.78,-83.89C739.11,-73.86 770.22,-61.53 794.19,-52.03"/>
<polygon fill="#616161" stroke="#616161" points="794.88,-53.64 798.88,-50.17 793.59,-50.38 794.88,-53.64"/>
</g>
<!-- Waiting for Printer -->
<g id="node11" class="node">
<title>Waiting for Printer</title>
<polygon fill="#616161" stroke="#616161" stroke-width="0" points="897.6,-212 768.6,-212 768.6,-176 897.6,-176 897.6,-212"/>
<text text-anchor="middle" x="833.1" y="-190.3" font-family="Roboto" font-size="14.00" fill="white">Waiting for Printer</text>
</g>
<!-- Waiting for Worker&#45;&gt;Waiting for Printer -->
<g id="edge16" class="edge">
<title>Waiting for Worker&#45;&gt;Waiting for Printer</title>
<path fill="none" stroke="#616161" d="M700.5,-120.18C727.79,-135.49 766.83,-157.38 795.29,-173.35"/>
<polygon fill="#616161" stroke="#616161" points="794.55,-174.94 799.77,-175.86 796.26,-171.89 794.55,-174.94"/>
</g>
<!-- Waiting for Printer&#45;&gt;Invalid -->
<g id="edge24" class="edge">
<title>Waiting for Printer&#45;&gt;Invalid</title>
<path fill="none" stroke="#616161" d="M768.36,-194C705.21,-194 605.73,-194 519.6,-194 388.6,-194 388.6,-194 388.6,-194 319.07,-194 237.66,-193.07 193.06,-192.48"/>
<polygon fill="#616161" stroke="#616161" points="192.83,-190.72 187.8,-192.4 192.78,-194.22 192.83,-190.72"/>
</g>
<!-- Waiting for Friday afternoon -->
<g id="node12" class="node">
<title>Waiting for Friday afternoon</title>
<polygon fill="#616161" stroke="#616161" stroke-width="0" points="1123.6,-212 933.6,-212 933.6,-176 1123.6,-176 1123.6,-212"/>
<text text-anchor="middle" x="1028.6" y="-190.3" font-family="Roboto" font-size="14.00" fill="white">Waiting for Friday afternoon</text>
</g>
<!-- Waiting for Printer&#45;&gt;Waiting for Friday afternoon -->
<g id="edge17" class="edge">
<title>Waiting for Printer&#45;&gt;Waiting for Friday afternoon</title>
<path fill="none" stroke="#616161" d="M897.73,-187.61C907.57,-187.39 917.94,-187.27 928.34,-187.25"/>
<polygon fill="#616161" stroke="#616161" points="928.45,-189 933.45,-187.25 928.45,-185.5 928.45,-189"/>
</g>
<!-- Work in Progress -->
<g id="node13" class="node">
<title>Work in Progress</title>
<polygon fill="#616161" stroke="#616161" stroke-width="0" points="1090.1,-158 967.1,-158 967.1,-122 1090.1,-122 1090.1,-158"/>
<text text-anchor="middle" x="1028.6" y="-136.3" font-family="Roboto" font-size="14.00" fill="white">Work in Progress</text>
</g>
<!-- Waiting for Printer&#45;&gt;Work in Progress -->
<g id="edge20" class="edge">
<title>Waiting for Printer&#45;&gt;Work in Progress</title>
<path fill="none" stroke="#616161" d="M897.73,-176.24C918.33,-170.49 941.2,-164.11 961.95,-158.32"/>
<polygon fill="#616161" stroke="#616161" points="962.55,-159.97 966.89,-156.94 961.61,-156.6 962.55,-159.97"/>
</g>
<!-- Waiting for Friday afternoon&#45;&gt;Krangled -->
<g id="edge18" class="edge">
<title>Waiting for Friday afternoon&#45;&gt;Krangled</title>
<path fill="none" stroke="#616161" d="M1123.67,-207.11C1134.41,-208.61 1144.89,-210.07 1154.36,-211.39"/>
<polygon fill="#616161" stroke="#616161" points="1154.31,-213.15 1159.51,-212.11 1154.8,-209.68 1154.31,-213.15"/>
</g>
<!-- Waiting for Friday afternoon&#45;&gt;Waiting for Printer -->
<g id="edge19" class="edge">
<title>Waiting for Friday afternoon&#45;&gt;Waiting for Printer</title>
<path fill="none" stroke="#616161" d="M933.45,-200.75C923.14,-200.77 912.79,-200.68 902.87,-200.49"/>
<polygon fill="#616161" stroke="#616161" points="902.76,-198.74 897.73,-200.39 902.69,-202.24 902.76,-198.74"/>
</g>
<!-- Work in Progress&#45;&gt;Low Priority -->
<g id="edge21" class="edge">
<title>Work in Progress&#45;&gt;Low Priority</title>
<path fill="none" stroke="#616161" d="M966.96,-140.46C864.59,-140.68 651.1,-138.69 471.6,-121 461.74,-120.03 451.23,-118.77 441.16,-117.45"/>
<polygon fill="#616161" stroke="#616161" points="441.13,-115.68 435.94,-116.76 440.67,-119.15 441.13,-115.68"/>
</g>
<!-- Work in Progress&#45;&gt;Waiting for Worker -->
<g id="edge23" class="edge">
<title>Work in Progress&#45;&gt;Waiting for Worker</title>
<path fill="none" stroke="#616161" d="M967.02,-133.6C903.71,-126.9 804.49,-116.42 737.92,-109.38"/>
<polygon fill="#616161" stroke="#616161" points="737.94,-107.62 732.79,-108.84 737.57,-111.1 737.94,-107.62"/>
</g>
<!-- Finished -->
<g id="node14" class="node">
<title>Finished</title>
<polygon fill="#616161" stroke="#616161" stroke-width="0" points="1230.6,-158 1160.6,-158 1160.6,-122 1230.6,-122 1230.6,-158"/>
<text text-anchor="middle" x="1195.6" y="-136.3" font-family="Roboto" font-size="14.00" fill="white">Finished</text>
</g>
<!-- Work in Progress&#45;&gt;Finished -->
<g id="edge22" class="edge">
<title>Work in Progress&#45;&gt;Finished</title>
<path fill="none" stroke="#616161" d="M1090.1,-140C1111.79,-140 1135.67,-140 1155.12,-140"/>
<polygon fill="#616161" stroke="#616161" points="1155.48,-141.75 1160.48,-140 1155.48,-138.25 1155.48,-141.75"/>
</g>
</g>
</svg>
