<?xml version="1.0" encoding="UTF-8" standalone="no"?>
<!DOCTYPE svg PUBLIC "-//W3C//DTD SVG 1.1//EN"
 "http://www.w3.org/Graphics/SVG/1.1/DTD/svg11.dtd">
<!-- Generated by graphviz version 2.46.0 (0)
 -->
<!-- Title: G Pages: 1 -->
<svg width="576pt" height="81pt"
 viewBox="0.00 0.00 576.00 81.38" xmlns="http://www.w3.org/2000/svg" xmlns:xlink="http://www.w3.org/1999/xlink">
<g id="graph0" class="graph" transform="scale(0.83 0.83) rotate(0) translate(4 94)">
<title>G</title>
<polygon fill="white" stroke="transparent" points="-4,4 -4,-94 689.6,-94 689.6,4 -4,4"/>
<!-- init -->
<g id="node1" class="node">
<title>init</title>
<ellipse fill="#616161" stroke="#616161" cx="1.8" cy="-45" rx="1.8" ry="1.8"/>
</g>
<!-- New -->
<g id="node2" class="node">
<title>New</title>
<polygon fill="#616161" stroke="#616161" stroke-width="0" points="93.6,-63 39.6,-63 39.6,-27 93.6,-27 93.6,-63"/>
<text text-anchor="middle" x="66.6" y="-41.3" font-family="Roboto" font-size="14.00" fill="white">New</text>
</g>
<!-- init&#45;&gt;New -->
<g id="edge1" class="edge">
<title>init&#45;&gt;New</title>
<path fill="none" stroke="#616161" d="M3.89,-45C7.71,-45 21.01,-45 34.29,-45"/>
<polygon fill="#616161" stroke="#616161" points="34.55,-46.75 39.55,-45 34.55,-43.25 34.55,-46.75"/>
</g>
<!-- Invalid -->
<g id="node3" class="node">
<title>Invalid</title>
<polygon fill="#616161" stroke="#616161" stroke-width="0" points="196.6,-90 138.6,-90 138.6,-54 196.6,-54 196.6,-90"/>
<text text-anchor="middle" x="167.6" y="-68.3" font-family="Roboto" font-size="14.00" fill="white">Invalid</text>
</g>
<!-- New&#45;&gt;Invalid -->
<g id="edge2" class="edge">
<title>New&#45;&gt;Invalid</title>
<path fill="none" stroke="#616161" d="M93.61,-52.09C105.75,-55.4 120.34,-59.38 133.28,-62.91"/>
<polygon fill="#616161" stroke="#616161" points="133.05,-64.66 138.33,-64.29 133.97,-61.29 133.05,-64.66"/>
</g>
<!-- Validated -->
<g id="node4" class="node">
<title>Validated</title>
<polygon fill="#616161" stroke="#616161" stroke-width="0" points="205.6,-36 129.6,-36 129.6,0 205.6,0 205.6,-36"/>
<text text-anchor="middle" x="167.6" y="-14.3" font-family="Roboto" font-size="14.00" fill="white">Validated</text>
</g>
<!-- New&#45;&gt;Validated -->
<g id="edge3" class="edge">
<title>New&#45;&gt;Validated</title>
<path fill="none" stroke="#616161" d="M93.61,-37.91C103.06,-35.33 114,-32.34 124.49,-29.48"/>
<polygon fill="#616161" stroke="#616161" points="125.23,-31.1 129.6,-28.09 124.31,-27.72 125.23,-31.1"/>
</g>
<!-- Work In Progress -->
<g id="node5" class="node">
<title>Work In Progress</title>
<polygon fill="#616161" stroke="#616161" stroke-width="0" points="364.6,-36 241.6,-36 241.6,0 364.6,0 364.6,-36"/>
<text text-anchor="middle" x="303.1" y="-14.3" font-family="Roboto" font-size="14.00" fill="white">Work In Progress</text>
</g>
<!-- Validated&#45;&gt;Work In Progress -->
<g id="edge4" class="edge">
<title>Validated&#45;&gt;Work In Progress</title>
<path fill="none" stroke="#616161" d="M205.79,-18C215.33,-18 225.89,-18 236.42,-18"/>
<polygon fill="#616161" stroke="#616161" points="236.58,-19.75 241.58,-18 236.58,-16.25 236.58,-19.75"/>
</g>
<!-- Waiting for Payment -->
<g id="node6" class="node">
<title>Waiting for Payment</title>
<polygon fill="#616161" stroke="#616161" stroke-width="0" points="543.6,-36 400.6,-36 400.6,0 543.6,0 543.6,-36"/>
<text text-anchor="middle" x="472.1" y="-14.3" font-family="Roboto" font-size="14.00" fill="white">Waiting for Payment</text>
</g>
<!-- Work In Progress&#45;&gt;Waiting for Payment -->
<g id="edge5" class="edge">
<title>Work In Progress&#45;&gt;Waiting for Payment</title>
<path fill="none" stroke="#616161" d="M364.86,-18C374.8,-18 385.2,-18 395.45,-18"/>
<polygon fill="#616161" stroke="#616161" points="395.46,-19.75 400.46,-18 395.46,-16.25 395.46,-19.75"/>
</g>
<!-- Paid/Archived -->
<g id="node7" class="node">
<title>Paid/Archived</title>
<polygon fill="#616161" stroke="#616161" stroke-width="0" points="685.6,-36 579.6,-36 579.6,0 685.6,0 685.6,-36"/>
<text text-anchor="middle" x="632.6" y="-14.3" font-family="Roboto" font-size="14.00" fill="white">Paid/Archived</text>
</g>
<!-- Waiting for Payment&#45;&gt;Paid/Archived -->
<g id="edge6" class="edge">
<title>Waiting for Payment&#45;&gt;Paid/Archived</title>
<path fill="none" stroke="#616161" d="M544.01,-18C554.11,-18 564.4,-18 574.21,-18"/>
<polygon fill="#616161" stroke="#616161" points="574.29,-19.75 579.29,-18 574.29,-16.25 574.29,-19.75"/>
</g>
</g>
</svg>
