<?xml version="1.0" encoding="UTF-8" standalone="no"?>
<!DOCTYPE svg PUBLIC "-//W3C//DTD SVG 1.1//EN"
 "http://www.w3.org/Graphics/SVG/1.1/DTD/svg11.dtd">
<!-- Generated by graphviz version 2.44.1 (0)
 -->
<!-- Title: G Pages: 1 -->
<svg width="227pt" height="332pt"
 viewBox="0.00 0.00 226.89 332.00" xmlns="http://www.w3.org/2000/svg" xmlns:xlink="http://www.w3.org/1999/xlink">
<g id="graph0" class="graph" transform="scale(1 1) rotate(0) translate(4 328)">
<title>G</title>
<polygon fill="white" stroke="transparent" points="-4,4 -4,-328 222.89,-328 222.89,4 -4,4"/>
<!-- New -->
<g id="node1" class="node">
<title>New</title>
<ellipse fill="none" stroke="black" cx="134.14" cy="-306" rx="27.1" ry="18"/>
<text text-anchor="middle" x="134.14" y="-302.3" font-family="Times,serif" font-size="14.00">New</text>
</g>
<!-- Validated -->
<g id="node2" class="node">
<title>Validated</title>
<ellipse fill="none" stroke="black" cx="85.14" cy="-234" rx="44.39" ry="18"/>
<text text-anchor="middle" x="85.14" y="-230.3" font-family="Times,serif" font-size="14.00">Validated</text>
</g>
<!-- New&#45;&gt;Validated -->
<g id="edge1" class="edge">
<title>New&#45;&gt;Validated</title>
<path fill="none" stroke="black" d="M123.27,-289.46C117.16,-280.74 109.4,-269.65 102.48,-259.76"/>
<polygon fill="black" stroke="black" points="105.27,-257.65 96.67,-251.47 99.54,-261.67 105.27,-257.65"/>
</g>
<!-- Invalid -->
<g id="node6" class="node">
<title>Invalid</title>
<ellipse fill="none" stroke="black" cx="183.14" cy="-234" rx="36" ry="18"/>
<text text-anchor="middle" x="183.14" y="-230.3" font-family="Times,serif" font-size="14.00">Invalid</text>
</g>
<!-- New&#45;&gt;Invalid -->
<g id="edge5" class="edge">
<title>New&#45;&gt;Invalid</title>
<path fill="none" stroke="black" d="M145.02,-289.46C151.12,-280.74 158.88,-269.65 165.81,-259.76"/>
<polygon fill="black" stroke="black" points="168.75,-261.67 171.62,-251.47 163.01,-257.65 168.75,-261.67"/>
</g>
<!-- Work In Progress -->
<g id="node3" class="node">
<title>Work In Progress</title>
<ellipse fill="none" stroke="black" cx="85.14" cy="-162" rx="73.39" ry="18"/>
<text text-anchor="middle" x="85.14" y="-158.3" font-family="Times,serif" font-size="14.00">Work In Progress</text>
</g>
<!-- Validated&#45;&gt;Work In Progress -->
<g id="edge2" class="edge">
<title>Validated&#45;&gt;Work In Progress</title>
<path fill="none" stroke="black" d="M85.14,-215.7C85.14,-207.98 85.14,-198.71 85.14,-190.11"/>
<polygon fill="black" stroke="black" points="88.64,-190.1 85.14,-180.1 81.64,-190.1 88.64,-190.1"/>
</g>
<!-- Waiting for Payment -->
<g id="node4" class="node">
<title>Waiting for Payment</title>
<ellipse fill="none" stroke="black" cx="85.14" cy="-90" rx="85.29" ry="18"/>
<text text-anchor="middle" x="85.14" y="-86.3" font-family="Times,serif" font-size="14.00">Waiting for Payment</text>
</g>
<!-- Work In Progress&#45;&gt;Waiting for Payment -->
<g id="edge3" class="edge">
<title>Work In Progress&#45;&gt;Waiting for Payment</title>
<path fill="none" stroke="black" d="M85.14,-143.7C85.14,-135.98 85.14,-126.71 85.14,-118.11"/>
<polygon fill="black" stroke="black" points="88.64,-118.1 85.14,-108.1 81.64,-118.1 88.64,-118.1"/>
</g>
<!-- Paid/Archived -->
<g id="node5" class="node">
<title>Paid/Archived</title>
<ellipse fill="none" stroke="black" cx="85.14" cy="-18" rx="61.99" ry="18"/>
<text text-anchor="middle" x="85.14" y="-14.3" font-family="Times,serif" font-size="14.00">Paid/Archived</text>
</g>
<!-- Waiting for Payment&#45;&gt;Paid/Archived -->
<g id="edge4" class="edge">
<title>Waiting for Payment&#45;&gt;Paid/Archived</title>
<path fill="none" stroke="black" d="M85.14,-71.7C85.14,-63.98 85.14,-54.71 85.14,-46.11"/>
<polygon fill="black" stroke="black" points="88.64,-46.1 85.14,-36.1 81.64,-46.1 88.64,-46.1"/>
</g>
</g>
</svg>
