<?xml version="1.0" encoding="UTF-8" standalone="no"?>
<!DOCTYPE svg PUBLIC "-//W3C//DTD SVG 1.1//EN"
 "http://www.w3.org/Graphics/SVG/1.1/DTD/svg11.dtd">
<!-- Generated by graphviz version 2.46.0 (0)
 -->
<!-- Title: G Pages: 1 -->
<svg width="576pt" height="73pt"
 viewBox="0.00 0.00 576.00 72.81" xmlns="http://www.w3.org/2000/svg" xmlns:xlink="http://www.w3.org/1999/xlink">
<g id="graph0" class="graph" transform="scale(0.74 0.74) rotate(0) translate(4 94)">
<title>G</title>
<polygon fill="white" stroke="transparent" points="-4,4 -4,-94 771.25,-94 771.25,4 -4,4"/>
<!-- init -->
<g id="node1" class="node">
<title>init</title>
<ellipse fill="black" stroke="black" cx="1.8" cy="-45" rx="1.8" ry="1.8"/>
</g>
<!-- New -->
<g id="node2" class="node">
<title>New</title>
<ellipse fill="none" stroke="black" cx="66.9" cy="-45" rx="27.1" ry="18"/>
<text text-anchor="middle" x="66.9" y="-41.3" font-family="Times,serif" font-size="14.00">New</text>
</g>
<!-- init&#45;&gt;New -->
<g id="edge1" class="edge">
<title>init&#45;&gt;New</title>
<path fill="none" stroke="black" d="M3.9,-45C7.24,-45 17.77,-45 29.24,-45"/>
<polygon fill="black" stroke="black" points="29.39,-48.5 39.39,-45 29.39,-41.5 29.39,-48.5"/>
</g>
<!-- Invalid -->
<g id="node3" class="node">
<title>Invalid</title>
<ellipse fill="none" stroke="black" cx="174.39" cy="-72" rx="36" ry="18"/>
<text text-anchor="middle" x="174.39" y="-68.3" font-family="Times,serif" font-size="14.00">Invalid</text>
</g>
<!-- New&#45;&gt;Invalid -->
<g id="edge2" class="edge">
<title>New&#45;&gt;Invalid</title>
<path fill="none" stroke="black" d="M92.63,-51.33C104.38,-54.34 118.73,-58.01 132.06,-61.42"/>
<polygon fill="black" stroke="black" points="131.44,-64.88 142,-63.97 133.18,-58.09 131.44,-64.88"/>
</g>
<!-- Validated -->
<g id="node4" class="node">
<title>Validated</title>
<ellipse fill="none" stroke="black" cx="174.39" cy="-18" rx="44.39" ry="18"/>
<text text-anchor="middle" x="174.39" y="-14.3" font-family="Times,serif" font-size="14.00">Validated</text>
</g>
<!-- New&#45;&gt;Validated -->
<g id="edge3" class="edge">
<title>New&#45;&gt;Validated</title>
<path fill="none" stroke="black" d="M92.63,-38.67C102.81,-36.06 114.96,-32.96 126.69,-29.95"/>
<polygon fill="black" stroke="black" points="127.59,-33.34 136.41,-27.47 125.85,-26.55 127.59,-33.34"/>
</g>
<!-- Work In Progress -->
<g id="node5" class="node">
<title>Work In Progress</title>
<ellipse fill="none" stroke="black" cx="328.03" cy="-18" rx="73.39" ry="18"/>
<text text-anchor="middle" x="328.03" y="-14.3" font-family="Times,serif" font-size="14.00">Work In Progress</text>
</g>
<!-- Validated&#45;&gt;Work In Progress -->
<g id="edge4" class="edge">
<title>Validated&#45;&gt;Work In Progress</title>
<path fill="none" stroke="black" d="M218.85,-18C226.83,-18 235.41,-18 244.12,-18"/>
<polygon fill="black" stroke="black" points="244.37,-21.5 254.37,-18 244.37,-14.5 244.37,-21.5"/>
</g>
<!-- Waiting for Payment -->
<g id="node6" class="node">
<title>Waiting for Payment</title>
<ellipse fill="none" stroke="black" cx="522.62" cy="-18" rx="85.29" ry="18"/>
<text text-anchor="middle" x="522.62" y="-14.3" font-family="Times,serif" font-size="14.00">Waiting for Payment</text>
</g>
<!-- Work In Progress&#45;&gt;Waiting for Payment -->
<g id="edge5" class="edge">
<title>Work In Progress&#45;&gt;Waiting for Payment</title>
<path fill="none" stroke="black" d="M401.56,-18C409.92,-18 418.53,-18 427.12,-18"/>
<polygon fill="black" stroke="black" points="427.17,-21.5 437.17,-18 427.17,-14.5 427.17,-21.5"/>
</g>
<!-- Paid/Archived -->
<g id="node7" class="node">
<title>Paid/Archived</title>
<ellipse fill="none" stroke="black" cx="705.5" cy="-18" rx="61.99" ry="18"/>
<text text-anchor="middle" x="705.5" y="-14.3" font-family="Times,serif" font-size="14.00">Paid/Archived</text>
</g>
<!-- Waiting for Payment&#45;&gt;Paid/Archived -->
<g id="edge6" class="edge">
<title>Waiting for Payment&#45;&gt;Paid/Archived</title>
<path fill="none" stroke="black" d="M607.97,-18C616.55,-18 625.2,-18 633.61,-18"/>
<polygon fill="black" stroke="black" points="633.74,-21.5 643.74,-18 633.74,-14.5 633.74,-21.5"/>
</g>
</g>
</svg>
